PathFileType	4	(X/Y/Z)	./motion_analysis/DM_ngait_tm_ss1_new.trc
DataRate	CameraRate	NumFrames	NumMarkers	Units	OrigDataRate	OrigDataStartFrame	OrigNumFrames
120	120	6	68	mm	120	1048	2097
Frame#	Time	Sternum			Neck			R_Shoulder			L_Shoulder			Xiphoid			Thoracic			R_Asis			L_Asis			R_Psis			L_Psis			Lumbar			R_Elbow			R_ElbowMedial			R_ShoulderAnterior			R_ShoulderPosterior			R_Wrist			R_Radius			R_Ulna			L_Elbow			L_ElbowMedial			L_ShoulderAnterior			L_ShoulderPosterior			L_Wrist			L_Ulna			L_Radius			L_Thigh_Superior			L_Thigh_Inferior			L_Thigh_Lateral			L_Knee_Lateral			L_Knee_Medial			L_Patella			L_Shank_Superior			L_Shank_Inferior			L_Shank_Lateral			L_Ankle_Lateral			L_Ankle_Medial			R_Thigh_Superior			R_Thigh_Inferior			R_Thigh_Lateral			R_Knee_Lateral			R_Knee_Medial			R_Patella			R_Shank_Superior			R_Shank_Inferior			R_Shank_Lateral			R_Ankle_Lateral			RankleMedial			R_Heel			R_Toe			R_Midfoot_Medial			R_Midfoot_Lateral			R_Hindfoot			R_Midfoot_Superior			R_ToeMedial			R_ToeLateral			L_Heel			L_Toe			L_Midfoot_Medial			L_Midfoot_Lateral			L_Hindfoot			L_Midfoot_Superior			L_ToeMedial			L_ToeLateral			Oglobal			Sacral			Xglobal			Yglobal			Zglobal			
		X1	Y1	Z1	X2	Y2	Z2	X3	Y3	Z3	X4	Y4	Z4	X5	Y5	Z5	X6	Y6	Z6	X7	Y7	Z7	X8	Y8	Z8	X9	Y9	Z9	X10	Y10	Z10	X11	Y11	Z11	X12	Y12	Z12	X13	Y13	Z13	X14	Y14	Z14	X15	Y15	Z15	X16	Y16	Z16	X17	Y17	Z17	X18	Y18	Z18	X19	Y19	Z19	X20	Y20	Z20	X21	Y21	Z21	X22	Y22	Z22	X23	Y23	Z23	X24	Y24	Z24	X25	Y25	Z25	X26	Y26	Z26	X27	Y27	Z27	X28	Y28	Z28	X29	Y29	Z29	X30	Y30	Z30	X31	Y31	Z31	X32	Y32	Z32	X33	Y33	Z33	X34	Y34	Z34	X35	Y35	Z35	X36	Y36	Z36	X37	Y37	Z37	X38	Y38	Z38	X39	Y39	Z39	X40	Y40	Z40	X41	Y41	Z41	X42	Y42	Z42	X43	Y43	Z43	X44	Y44	Z44	X45	Y45	Z45	X46	Y46	Z46	X47	Y47	Z47	X48	Y48	Z48	X49	Y49	Z49	X50	Y50	Z50	X51	Y51	Z51	X52	Y52	Z52	X53	Y53	Z53	X54	Y54	Z54	X55	Y55	Z55	X56	Y56	Z56	X57	Y57	Z57	X58	Y58	Z58	X59	Y59	Z59	X60	Y60	Z60	X61	Y61	Z61	X62	Y62	Z62	X63	Y63	Z63	X64	Y64	Z64	X65	Y65	Z65	X66	Y66	Z66	X67	Y67	Z67	X68	Y68	Z68	

1049	8.741667	-877.793	1388.4	514.138	-726.239	1478.24	505.79	-831.146	1422.92	348.661	-795.63	1429.83	683.878	-890.621	1222.01	508.217	-630.081	1291.88	513.717	-798.379	994.188	368.459	-812.638	999.316	643.237	-603.59	1043.45	485.394	-609.3099999999999	1040.97	564.312	-607.669	1092.14	520.203	-978.454	1147.15	277.272	-0	0	0	-0	0	0	-0	0	0	-1176.19	971.301	352.335	-1152.45	958.208	389.145	-1152.36	951.129	315.76	-868.4829999999999	1116.62	810.159	-0	0	0	-0	0	0	-0	0	0	-1046.44	916.039	776.1	-1007.07	905.494	803.9109999999999	-1025.97	927.42	734.486	-748.0119999999999	822.728	668.202	-755.553	602.931	607.934	-804.372	692.539	579.951	-0	0	0	-0	0	0	-774.958	511.137	544.359	-696.865	453.007	617.097	-612.259	194.129	611.84	-682.67	309.864	542.803	-0	0	0	-0	0	0	-734.333	816.97	327.927	-835.548	623.301	348.648	-896.1	710.721	387.296	-0	0	0	-0	0	0	-947.999	555.833	396.41	-0	0	0	-821.3049999999999	229.733	337.527	-897.99	352.904	396.624	-0	0	0	-0	0	0	-757.369	93.21550000000001	398.926	-1047.69	91.5938	331.89	-985.971	69.7409	401.389	-950.008	62.7301	289.989	-844.297	58.2145	326.091	-913.077	153.526	358.392	-1024.25	79.5646	382.929	-998.494	74.6716	293.455	-514.388	78.46599999999999	556.5650000000001	-813.3150000000001	67.447	574.908	-735.3200000000001	45.8684	520.5890000000001	-717.337	48.2095	633.625	-609.795	44.3717	618.953	-678.693	133.386	569.397	-778.272	50.1468	528.648	-772.629	51.3807	626.121	-0	0	0	-606.45	1042.21	524.853	-200	0	0	-0	0	200	-0	200	0	
1050	8.75	-876.871	1387.47	513.847	-725.309	1477.3	505.647	-829.971	1421.91	348.215	-795.073	1429	683.518	-889.716	1220.98	508.304	-629.159	1290.93	513.442	-797.794	993.074	368.452	-811.557	998.145	643.247	-602.823	1042.58	484.979	-608.3920000000001	1040.04	564.0359999999999	-606.924	1091.23	519.857	-977.343	1145.96	276.925	-0	0	0	-0	0	0	-0	0	0	-1176.06	971.123	352.202	-1152.41	958.1319999999999	389.176	-1152.18	950.813	315.668	-873.884	1117.94	809.835	-0	0	0	-0	0	0	-0	0	0	-1054.78	920.66	772.083	-1016.24	909.622	800.961	-1033.03	931.682	730.902	-744.9690000000001	821.825	667.998	-750.275	601.992	607.84	-799.866	691.0549999999999	579.224	-0	0	0	-0	0	0	-767.984	510.059	544.4690000000001	-689.705	452.552	616.967	-602.951	194.274	611.759	-674.135	309.477	542.638	-0	0	0	-0	0	0	-733.12	815.654	327.566	-835.229	622.533	349.435	-895.165	710.2380000000001	388.082	-0	0	0	-0	0	0	-948.357	556.8579999999999	397.581	-0	0	0	-836.673	226.952	336.494	-907.865	353.169	395.983	-0	0	0	-0	0	0	-779.4450000000001	87.3128	397.628	-1068.82	99.09	327.668	-1008.87	73.88339999999999	397.526	-972.0650000000001	66.3112	286.438	-867.129	56.823	323.522	-931.978	154.798	356.063	-1046.48	85.62009999999999	378.841	-1020.11	80.36839999999999	289.568	-504.642	78.54179999999999	556.204	-803.299	67.3733	574.972	-725.626	45.7357	520.74	-707.441	48.4833	633.735	-599.832	44.4142	619.034	-668.619	133.338	569.111	-768.064	50.15	528.692	-762.662	51.3034	626.101	-0	0	0	-605.607	1041.31	524.5069999999999	-200	0	0	-0	0	200	-0	200	0	
1051	8.758333	-876.0359999999999	1386.45	513.4640000000001	-724.436	1476.23	505.433	-828.88	1420.72	347.782	-794.501	1428.02	683.103	-888.825	1219.82	508.346	-628.399	1289.92	513.069	-797.177	991.766	368.366	-810.55	997.083	643.265	-602.0700000000001	1041.6	484.52	-607.528	1039	563.7089999999999	-606.1660000000001	1090.22	519.448	-976.157	1144.7	276.48	-0	0	0	-0	0	0	-0	0	0	-1175.77	970.85	351.995	-1152.29	957.994	389.252	-1151.93	950.375	315.578	-879.09	1119.07	809.226	-0	0	0	-0	0	0	-0	0	0	-1062.72	925.098	767.905	-1024.97	913.552	797.818	-1039.79	935.728	727.269	-741.99	820.888	667.814	-745.04	601.02	607.647	-795.722	689.585	579.399	-0	0	0	-0	0	0	-761.08	508.877	544.678	-682.5700000000001	452.055	616.878	-593.812	194.448	611.768	-665.711	309.099	542.485	-0	0	0	-0	0	0	-731.948	814.188	327.289	-834.764	621.55	350.296	-894.1420000000001	709.414	388.852	-0	0	0	-0	0	0	-948.548	557.917	398.085	-0	0	0	-851.919	224.671	335.481	-917.462	353.687	395.361	-0	0	0	-0	0	0	-801.381	82.30070000000001	396.409	-1089.44	106.965	323.857	-1031.16	78.78400000000001	394.312	-993.765	70.3415	283.485	-889.6319999999999	56.0681	321.369	-950.539	156.588	354.026	-1068.2	92.3274	375.343	-1041.13	86.3946	286.14	-494.501	78.74630000000001	556.45	-793.386	67.1758	575.029	-715.3440000000001	45.4656	520.5549999999999	-697.405	48.3818	633.585	-589.79	44.5159	619.121	-658.875	133.324	568.9640000000001	-758.085	49.9194	528.713	-752.6849999999999	51.1824	626.0839999999999	-0	0	0	-604.799	1040.3	524.115	-200	0	0	-0	0	200	-0	200	0	
1052	8.766667	-875.269	1385.27	513.114	-723.627	1475.06	505.137	-827.795	1419.48	347.28	-794.0069999999999	1426.81	682.678	-888.174	1218.64	508.439	-627.59	1288.84	512.6660000000001	-796.833	990.456	368.428	-809.568	995.777	643.249	-601.456	1040.48	484.041	-606.726	1037.84	563.314	-605.547	1089.06	519.0069999999999	-974.985	1143.33	275.912	-0	0	0	-0	0	0	-0	0	0	-1175.46	970.503	351.803	-1151.83	957.354	388.901	-1151.7	949.862	315.442	-884.073	1120.01	808.383	-0	0	0	-0	0	0	-0	0	0	-1070.25	929.319	763.665	-1033.33	917.337	794.596	-1046.05	939.4059999999999	723.526	-739.173	819.92	667.668	-739.79	599.925	607.5700000000001	-791.886	688.061	580.177	-0	0	0	-0	0	0	-754.171	507.643	544.819	-675.3630000000001	451.589	616.798	-584.563	194.653	611.708	-657.427	308.724	542.559	-0	0	0	-0	0	0	-730.9059999999999	812.792	327.01	-834.2809999999999	620.347	351.149	-893.058	708.33	389.664	-0	0	0	-0	0	0	-948.556	558.671	398.922	-0	0	0	-867.014	222.9	334.471	-926.702	354.476	394.811	-0	0	0	-0	0	0	-822.72	78.0805	395.043	-1109.37	115.244	320.773	-1052.43	84.0819	391.641	-1014.77	74.8365	280.969	-911.7089999999999	56.1722	319.325	-968.682	158.89	352.268	-1089.05	99.3467	372.283	-1061.63	92.9062	283.297	-484.414	79.0159	556.485	-783.252	66.97629999999999	574.99	-705.164	45.4067	520.326	-687.349	48.2474	633.378	-579.676	44.5169	619.057	-648.933	133.326	568.879	-748.009	49.807	528.699	-742.59	51.1231	626.075	-0	0	0	-604.091	1039.16	523.678	-200	0	0	-0	0	200	-0	200	0	
1053	8.775	-874.487	1383.97	512.753	-722.867	1473.76	504.795	-826.854	1418.12	346.847	-793.473	1425.51	682.1799999999999	-887.437	1217.36	508.341	-626.802	1287.5	512.274	-796.657	989.455	368.497	-809.2	994.9	642.692	-601.058	1039.01	483.934	-606.222	1036.64	562.9109999999999	-605.066	1087.71	518.616	-973.7380000000001	1141.92	275.209	-0	0	0	-0	0	0	-0	0	0	-1175.06	970.091	351.605	-1151.48	956.891	388.57	-1151.42	949.259	315.164	-888.8390000000001	1120.74	807.276	-0	0	0	-0	0	0	-0	0	0	-1077.37	933.317	759.374	-1041.3	920.883	791.231	-1052.06	942.726	720.091	-736.45	818.96	667.5069999999999	-734.543	598.952	607.67	-788.991	686.875	582.549	-0	0	0	-0	0	0	-747.481	506.432	545.018	-668.134	451.119	616.827	-575.183	194.849	611.58	-649.151	308.323	542.688	-0	0	0	-0	0	0	-729.827	811.208	326.94	-833.741	618.977	351.795	-891.933	707.162	390.426	-0	0	0	-0	0	0	-948.533	559.138	399.873	-0	0	0	-881.8579999999999	221.677	333.585	-935.5410000000001	355.623	394.406	-0	0	0	-0	0	0	-844.275	75.1182	394.079	-1128.52	124.033	318.622	-1073.54	90.31270000000001	389.444	-1035.64	80.2689	278.924	-933.453	57.0368	317.7	-986.373	161.796	351.107	-1109.14	107.168	369.871	-1081.59	99.96850000000001	281.499	-474.432	79.1653	556.478	-773.2329999999999	67.00060000000001	575.0700000000001	-695.122	45.2835	520.212	-677.36	48.1054	633.272	-569.739	44.4976	619.037	-639.0170000000001	133.255	568.821	-737.9400000000001	49.7395	528.683	-732.511	51.0752	626.102	-0	0	0	-603.64	1037.82	523.422	-200	0	0	-0	0	200	-0	200	0	
1054	8.783333000000001	-873.857	1382.56	512.364	-722.119	1472.32	504.466	-825.901	1416.66	346.231	-793.051	1424.06	681.7089999999999	-886.835	1216.04	508.159	-626.153	1286.2	511.539	-796.5700000000001	988.074	368.619	-808.426	993.785	642.491	-600.599	1037.48	483.484	-605.528	1035.27	562.365	-604.494	1086.25	518.005	-972.482	1140.39	274.292	-0	0	0	-0	0	0	-0	0	0	-1174.57	969.664	351.346	-1151.07	956.524	388.369	-1150.98	948.604	315.023	-893.385	1121.27	805.976	-0	0	0	-0	0	0	-0	0	0	-1084.13	937.067	754.985	-1048.85	924.265	787.751	-1057.75	945.78	716.357	-733.88	817.957	667.388	-729.258	597.874	607.989	-785.251	685.086	583.689	-0	0	0	-0	0	0	-740.419	505.133	544.936	-660.859	450.672	616.924	-565.921	195.079	611.583	-640.917	307.926	542.694	-0	0	0	-0	0	0	-728.828	809.087	327.418	-833.216	617.624	352.187	-890.881	705.937	391.033	-0	0	0	-0	0	0	-948.604	559.356	400.841	-0	0	0	-896.292	221.02	332.749	-943.845	357.097	393.985	-0	0	0	-0	0	0	-864.933	72.9385	393.125	-1146.95	133.247	317.547	-1093.45	96.9123	388.248	-1055.76	86.1581	277.72	-954.566	58.72	316.48	-1003.5	165.235	350.534	-1128.42	115.58	369.007	-1100.88	107.669	280.142	-464.624	79.3993	556.359	-763.321	66.8066	575.0940000000001	-685.309	45.009	520.5410000000001	-667.379	48.2298	633.564	-559.521	44.6623	619.175	-629.216	133.214	568.772	-728.023	49.6568	528.745	-722.587	50.9906	626.183	-0	0	0	-603.063	1036.38	522.925	-200	0	0	-0	0	200	-0	200	0	
